# xmcd
#
# Track frame offsets: 
#        150
#        15542
#        31795
#        56005
#
# Disc length: 938 seconds
#
# Revision: 0
# Processed by: cddbd v1.5.2PL0 Copyright (c) Steve Scherf et al.
# Submitted via: ExactAudioCopyFreeDBPlugin 1.0
#
DISCID=2503a804
DTITLE=Darden Smith -  Loving Arms 
DYEAR=1993
DGENRE=Country
TTITLE0=Loving Arms (Radio Edit)
TTITLE1=Worry For You
TTITLE2=Dream's a Dream (Live)
TTITLE3=Days on End (Live)
EXTD=
EXTT0=
EXTT1=
EXTT2=
EXTT3=
PLAYORDER=
